<?xml version="1.0" ?><svg fill="#fff" id="Layer_1" style="enable-background:new 0 0 512 512;" version="1.1" viewBox="0 0 512 512" xml:space="preserve" xmlns="http://www.w3.org/2000/svg" xmlns:xlink="http://www.w3.org/1999/xlink"><g id="XMLID_3759_"><path d="M12.2,75.8v360.3h62.3V75.8H12.2z M34.4,425h-15v-12.6h15V425z M34.4,404.5h-15V392h15V404.5z    M34.4,384.1h-15v-12.6h15V384.1z M34.4,363.6h-15V351h15V363.6z M34.4,343.1h-15v-12.6h15V343.1z M34.4,322.7h-15v-12.6h15V322.7z    M34.4,302.2h-15v-12.6h15V302.2z M34.4,281.8h-15v-12.6h15V281.8z M34.4,261.3h-15v-12.6h15V261.3z M34.4,240.8h-15v-12.6h15   V240.8z M34.4,220.4h-15v-12.6h15V220.4z M34.4,199.9h-15v-12.6h15V199.9z M34.4,179.4h-15v-12.6h15V179.4z M34.4,159h-15v-12.6h15   V159z M34.4,138.5h-15v-12.6h15V138.5z M34.4,118h-15v-12.6h15V118z M34.4,97.6h-15V85h15V97.6z M67.3,425h-15v-12.6h15V425z    M67.3,404.5h-15V392h15V404.5z M67.3,384.1h-15v-12.6h15V384.1z M67.3,363.6h-15V351h15V363.6z M67.3,343.1h-15v-12.6h15V343.1z    M67.3,322.7h-15v-12.6h15V322.7z M67.3,302.2h-15v-12.6h15V302.2z M67.3,281.8h-15v-12.6h15V281.8z M67.3,261.3h-15v-12.6h15   V261.3z M67.3,240.8h-15v-12.6h15V240.8z M67.3,220.4h-15v-12.6h15V220.4z M67.3,199.9h-15v-12.6h15V199.9z M67.3,179.4h-15v-12.6   h15V179.4z M67.3,159h-15v-12.6h15V159z M67.3,138.5h-15v-12.6h15V138.5z M67.3,118h-15v-12.6h15V118z M67.3,97.6h-15V85h15V97.6z" id="XMLID_3505_"/><path d="M136.7,184.8v251.4h79.8V184.8H136.7z M212.8,424.2h-72.5v-11.6h72.5V424.2z M212.8,402.6h-72.5v-11.6   h72.5V402.6z M212.8,381h-72.5v-11.6h72.5V381z M212.8,359.4h-72.5v-11.6h72.5V359.4z M212.8,337.9h-72.5v-11.6h72.5V337.9z    M212.8,316.3h-72.5v-11.6h72.5V316.3z M212.8,294.7h-72.5v-11.6h72.5V294.7z M212.8,273.1h-72.5v-11.6h72.5V273.1z M212.8,251.5   h-72.5v-11.6h72.5V251.5z M212.8,229.9h-72.5v-11.6h72.5V229.9z M212.8,208.3h-72.5v-11.6h72.5V208.3z" id="XMLID_3538_"/><g id="XMLID_3608_"><rect height="203.5" id="XMLID_3612_" width="12.1" x="76.2" y="232.6"/><rect height="203.5" id="XMLID_3619_" width="12.5" x="91.4" y="232.6"/><rect height="203.5" id="XMLID_3622_" width="11.1" x="122.4" y="232.6"/><rect height="203.5" id="XMLID_3625_" width="12.5" x="106.9" y="232.6"/></g><g id="XMLID_3758_"><path d="M437.5,75.8v360.3h62.3V75.8H437.5z M477.6,412.4h15V425h-15V412.4z M477.6,392h15v12.6h-15V392z     M477.6,371.5h15v12.6h-15V371.5z M477.6,351h15v12.6h-15V351z M477.6,330.6h15v12.6h-15V330.6z M477.6,310.1h15v12.6h-15V310.1z     M477.6,289.6h15v12.6h-15V289.6z M477.6,269.2h15v12.6h-15V269.2z M477.6,248.7h15v12.6h-15V248.7z M477.6,228.2h15v12.6h-15    V228.2z M477.6,207.8h15v12.6h-15V207.8z M477.6,187.3h15v12.6h-15V187.3z M477.6,166.8h15v12.6h-15V166.8z M477.6,146.4h15V159    h-15V146.4z M477.6,125.9h15v12.6h-15V125.9z M477.6,105.4h15V118h-15V105.4z M477.6,85h15v12.6h-15V85z M444.7,412.4h15V425h-15    V412.4z M444.7,392h15v12.6h-15V392z M444.7,371.5h15v12.6h-15V371.5z M444.7,351h15v12.6h-15V351z M444.7,330.6h15v12.6h-15    V330.6z M444.7,310.1h15v12.6h-15V310.1z M444.7,289.6h15v12.6h-15V289.6z M444.7,269.2h15v12.6h-15V269.2z M444.7,248.7h15v12.6    h-15V248.7z M444.7,228.2h15v12.6h-15V228.2z M444.7,207.8h15v12.6h-15V207.8z M444.7,187.3h15v12.6h-15V187.3z M444.7,166.8h15    v12.6h-15V166.8z M444.7,146.4h15V159h-15V146.4z M444.7,125.9h15v12.6h-15V125.9z M444.7,105.4h15V118h-15V105.4z M444.7,85h15    v12.6h-15V85z" id="XMLID_3719_"/><path d="M295.5,184.8v251.4h79.8V184.8H295.5z M299.2,412.6h72.5v11.6h-72.5V412.6z M299.2,391.1h72.5v11.6    h-72.5V391.1z M299.2,369.5h72.5V381h-72.5V369.5z M299.2,347.9h72.5v11.6h-72.5V347.9z M299.2,326.3h72.5v11.6h-72.5V326.3z     M299.2,304.7h72.5v11.6h-72.5V304.7z M299.2,283.1h72.5v11.6h-72.5V283.1z M299.2,261.5h72.5v11.6h-72.5V261.5z M299.2,239.9    h72.5v11.6h-72.5V239.9z M299.2,218.3h72.5v11.6h-72.5V218.3z M299.2,196.7h72.5v11.6h-72.5V196.7z" id="XMLID_3649_"/><g id="XMLID_3531_"><rect height="203.5" id="XMLID_3648_" width="12.1" x="423.6" y="232.6"/><rect height="203.5" id="XMLID_3647_" width="12.5" x="408.1" y="232.6"/><rect height="203.5" id="XMLID_3646_" width="11.1" x="378.5" y="232.6"/><rect height="203.5" id="XMLID_3643_" width="12.5" x="392.6" y="232.6"/></g></g><g id="XMLID_3772_"><polygon id="XMLID_3773_" points="258.1,287.9 258.1,314.1 275.6,314.1 275.6,287.9   "/><polygon id="XMLID_3774_" points="234.6,287.9 217.9,287.9 217.9,314.2 234.6,314.1   "/><polygon id="XMLID_3775_" points="258.1,317.1 258.1,344.4 275.6,344.3 275.6,317.1   "/><polygon id="XMLID_3776_" points="275.6,347.3 258.1,347.4 258.1,375.6 275.6,375.6   "/><polygon id="XMLID_3777_" points="234.6,257.7 217.9,257.7 217.9,284.9 234.6,284.9   "/><polygon id="XMLID_3778_" points="237.6,254.7 255.1,254.6 255.1,228.4 237.6,228.4   "/><polygon id="XMLID_3779_" points="258.1,228.4 258.1,254.6 275.6,254.6 275.6,228.4   "/><polygon id="XMLID_3780_" points="258.1,257.6 258.1,284.9 275.6,284.9 275.6,257.6   "/><polygon id="XMLID_3781_" points="255.1,375.6 255.1,347.4 237.6,347.4 237.6,375.6   "/><polygon id="XMLID_3782_" points="278.6,405.8 293.9,405.8 293.9,378.6 278.6,378.6   "/><polygon id="XMLID_3783_" points="255.1,314.1 255.1,287.9 237.6,287.9 237.6,314.1   "/><polygon id="XMLID_3784_" points="234.6,228.4 217.9,228.4 217.9,254.7 234.6,254.7   "/><polygon id="XMLID_3785_" points="237.6,257.7 237.6,284.9 255.1,284.9 255.1,257.6   "/><polygon id="XMLID_3786_" points="255.1,344.4 255.1,317.1 237.6,317.1 237.6,344.4   "/><polygon id="XMLID_3787_" points="278.6,344.3 293.9,344.3 293.9,317.1 278.6,317.1   "/><polygon id="XMLID_3788_" points="278.6,284.8 293.9,284.8 293.9,257.6 278.6,257.6   "/><polygon id="XMLID_3789_" points="278.6,254.6 293.9,254.6 293.9,228.3 278.6,228.4   "/><polygon id="XMLID_3790_" points="278.6,375.6 293.9,375.6 293.9,347.3 278.6,347.3   "/><polygon id="XMLID_3791_" points="234.6,317.1 217.9,317.2 217.9,344.4 234.6,344.4   "/><polygon id="XMLID_3792_" points="278.6,408.8 278.6,435.6 293.9,435.6 293.9,408.8   "/><polygon id="XMLID_3793_" points="234.6,408.9 217.9,408.9 217.9,435.6 234.6,435.6   "/><polygon id="XMLID_3794_" points="234.6,225.4 234.6,198.9 237.6,198.9 237.6,225.4 255.1,225.4 255.1,198.9 258.1,198.9     258.1,225.4 275.6,225.4 275.6,198.9 278.6,198.9 278.6,225.4 293.9,225.3 293.9,198.6 217.9,198.6 217.9,225.4   "/><polygon id="XMLID_3795_" points="278.6,314.1 293.9,314.1 293.9,287.8 278.6,287.8   "/><polygon id="XMLID_3796_" points="234.6,378.6 217.9,378.6 217.9,405.9 234.6,405.9   "/><polygon id="XMLID_3799_" points="234.6,347.4 217.9,347.4 217.9,375.6 234.6,375.6   "/><polygon id="XMLID_3800_" points="258.1,378.6 258.1,405.8 275.6,405.8 275.6,378.6   "/><polygon id="XMLID_3801_" points="255.1,378.6 237.6,378.6 237.6,405.9 255.1,405.8   "/><polygon id="XMLID_3802_" points="275.6,408.8 258.1,408.8 258.1,435.6 275.6,435.6   "/><polygon id="XMLID_3803_" points="255.1,435.6 255.1,408.8 237.6,408.9 237.6,435.6   "/></g></g></svg>