<?xml version="1.0" ?><svg id="Layer_1" style="enable-background:new 0 0 74 74;" version="1.1" viewBox="0 0 74 74" xml:space="preserve" xmlns="http://www.w3.org/2000/svg" xmlns:xlink="http://www.w3.org/1999/xlink"><style type="text/css">
	.st0{fill:#fff;}
</style><path class="st0" d="M72.6,25.3c0,0,0.1-0.1,0.1-0.1c0-0.1,0.1-0.1,0.1-0.2c0,0,0-0.1,0.1-0.1c0-0.1,0.1-0.2,0.1-0.2  c0,0,0-0.1,0-0.1c0-0.2,0-0.5,0-0.8c0,0,0-0.1,0-0.1c0-0.1,0-0.2-0.1-0.2c0-0.1,0-0.1-0.1-0.1c0-0.1-0.1-0.1-0.1-0.2  c0,0-0.1-0.1-0.1-0.1c0,0,0-0.1-0.1-0.1L60.8,9.2c-0.4-0.4-0.9-0.7-1.5-0.7H48H26H14.7c-0.6,0-1.1,0.3-1.5,0.7L1.5,22.7  c0,0,0,0.1-0.1,0.1c0,0-0.1,0.1-0.1,0.1c0,0.1-0.1,0.1-0.1,0.2c0,0,0,0.1-0.1,0.1c0,0.1-0.1,0.2-0.1,0.2c0,0,0,0.1,0,0.1  c0,0.2,0,0.5,0,0.8c0,0,0,0.1,0,0.1c0,0.1,0,0.2,0.1,0.2c0,0.1,0,0.1,0.1,0.1c0,0.1,0.1,0.1,0.1,0.2c0,0,0.1,0.1,0.1,0.1  c0,0,0,0.1,0.1,0.1l34,39.4c0,0,0,0,0,0l0,0c0,0,0,0,0,0c0.1,0.1,0.1,0.1,0.2,0.2c0,0,0.1,0.1,0.1,0.1c0,0,0,0,0.1,0c0,0,0,0,0,0  c0,0,0.1,0.1,0.2,0.1c0,0,0.1,0,0.1,0.1c0.1,0,0.1,0,0.2,0.1c0,0,0.1,0,0.1,0c0,0,0,0,0,0c0,0,0.1,0,0.1,0c0.1,0,0.3,0,0.4,0  s0.3,0,0.4,0c0,0,0.1,0,0.1,0c0,0,0,0,0,0c0,0,0.1,0,0.1,0c0.1,0,0.1,0,0.2-0.1c0,0,0.1,0,0.1-0.1c0.1,0,0.1-0.1,0.2-0.1  c0,0,0,0,0,0c0,0,0,0,0.1,0c0,0,0.1-0.1,0.1-0.1c0.1-0.1,0.1-0.1,0.2-0.2c0,0,0,0,0,0l0,0c0,0,0,0,0,0l34-39.4  C72.5,25.3,72.6,25.3,72.6,25.3z M18.9,26l11.2,26.4L7.4,26H18.9z M39,26h11.8L39,53.7V26z M35,53.7L23.2,26H35V53.7z M55.1,26h11.5  L43.9,52.5L55.1,26z M66.6,22H55.1L51,12.5h7.4L66.6,22z M50.8,22H39v-9.5h7.7L50.8,22z M35,12.5V22H23.2l4.1-9.5H35z M15.6,12.5H23  L18.9,22H7.4L15.6,12.5z"/></svg>