<?xml version="1.0" ?><!DOCTYPE svg  PUBLIC '-//W3C//DTD SVG 1.1//EN'  'http://www.w3.org/Graphics/SVG/1.1/DTD/svg11.dtd'><svg enable-background="new 0 0 48 48" height="48px" version="1.1" viewBox="0 0 48 48" width="48px" xml:space="preserve" xmlns="http://www.w3.org/2000/svg" xmlns:xlink="http://www.w3.org/1999/xlink"><g id="Layer_4"><path d="M44.463,27.653c-1.876,2.19-4.099,4.075-6.581,5.575l-1.726-11.6l-0.018,0.005   c-0.042-0.97-0.357-1.861-0.849-2.63c2.574,0.553,4.814,2.225,6.074,4.604h3.876c-1.334-4.724-6.205-7.528-10.973-6.273   c-0.148,0.038-0.283,0.094-0.427,0.139c-0.87-0.61-1.92-0.978-3.067-0.978h-1.794h-0.718H18.203c0,0-1.571-6.183-6.511-7.89   c-4.939-1.706-9.251,2.739-9.251,2.739l1.258,1.257v10.957h3.098c0,0,1.167-0.79,1.415-2.932l0.017-0.016   c0.054,0.005,0.107,0.016,0.164,0.016c1.127,0,2.045-0.864,2.155-1.963h0.067c0,0,2.127,4.013,1.162,6.519L8.96,32.484   c-2.018-1.362-3.844-2.988-5.424-4.831H0.078C5.476,35.007,14.178,39.785,24,39.785c9.821,0,18.525-4.778,23.922-12.132H44.463z    M24,37.089c-3.714,0-7.247-0.761-10.463-2.122c1.747-3.555,5.375-6.021,9.604-6.021c4.451,0,8.235,2.731,9.86,6.591   C30.187,36.538,27.16,37.089,24,37.089z" fill="#fff"/></g></svg>